<svg width="54" height="45" viewBox="0 0 54 45" fill="none" xmlns="http://www.w3.org/2000/svg">
<path d="M31.5 0C19.0706 0 9 9.62298 9 21.5C9 33.377 19.0706 43 31.5 43C43.9294 43 54 33.377 54 21.5C54 9.62298 43.9294 0 31.5 0ZM31.5 8.32258C35.9093 8.32258 39.4839 11.7383 39.4839 15.9516C39.4839 20.1649 35.9093 23.5806 31.5 23.5806C27.0907 23.5806 23.5161 20.1649 23.5161 15.9516C23.5161 11.7383 27.0907 8.32258 31.5 8.32258ZM31.5 38.1452C26.1744 38.1452 21.4022 35.8391 18.2087 32.2327C19.9143 29.1637 23.253 27.0484 27.1452 27.0484C27.3629 27.0484 27.5806 27.0831 27.7893 27.1438C28.9688 27.5079 30.2026 27.7419 31.5 27.7419C32.7974 27.7419 34.0403 27.5079 35.2107 27.1438C35.4194 27.0831 35.6371 27.0484 35.8548 27.0484C39.747 27.0484 43.0857 29.1637 44.7913 32.2327C41.5978 35.8391 36.8256 38.1452 31.5 38.1452Z" fill="white"/>
<circle cx="9.5" cy="32.5" r="9.5" fill="white"/>
<path d="M7.63068 38.054V25.9858H10.6818V38.054H7.63068ZM3.12216 33.5455V30.4943H15.1903V33.5455H3.12216Z" fill="#616469"/>
</svg>
