<svg width="48" height="65" viewBox="0 0 48 65" fill="none" xmlns="http://www.w3.org/2000/svg">
<path d="M6.85713 13C5.03851 13 3.29437 12.3152 2.0084 11.0962C0.722438 9.87721 -8.25001e-06 8.22391 -8.25001e-06 6.50001C-8.25001e-06 4.7761 0.722438 3.1228 2.0084 1.90381C3.29437 0.684825 5.03851 5.16574e-06 6.85713 5.16574e-06C8.67576 5.16574e-06 10.4199 0.684825 11.7059 1.90381C12.9918 3.1228 13.7143 4.7761 13.7143 6.50001C13.7143 8.22391 12.9918 9.87721 11.7059 11.0962C10.4199 12.3152 8.67576 13 6.85713 13ZM24 13C22.1814 13 20.4372 12.3152 19.1513 11.0962C17.8653 9.87721 17.1428 8.22391 17.1428 6.50001C17.1428 4.7761 17.8653 3.1228 19.1513 1.90381C20.4372 0.684825 22.1814 5.16574e-06 24 5.16574e-06C25.8186 5.16574e-06 27.5628 0.684825 28.8487 1.90381C30.1347 3.1228 30.8571 4.7761 30.8571 6.50001C30.8571 8.22391 30.1347 9.87721 28.8487 11.0962C27.5628 12.3152 25.8186 13 24 13ZM41.1428 13C39.3242 13 37.5801 12.3152 36.2941 11.0962C35.0082 9.87721 34.2857 8.22391 34.2857 6.50001C34.2857 4.7761 35.0082 3.1228 36.2941 1.90381C37.5801 0.684825 39.3242 5.16574e-06 41.1428 5.16574e-06C42.9615 5.16574e-06 44.7056 0.684825 45.9916 1.90381C47.2775 3.1228 48 4.7761 48 6.50001C48 8.22391 47.2775 9.87721 45.9916 11.0962C44.7056 12.3152 42.9615 13 41.1428 13ZM6.85713 29.25C5.03851 29.25 3.29437 28.5652 2.0084 27.3462C0.722438 26.1272 -8.25001e-06 24.4739 -8.25001e-06 22.75C-8.25001e-06 21.0261 0.722438 19.3728 2.0084 18.1538C3.29437 16.9348 5.03851 16.25 6.85713 16.25C8.67576 16.25 10.4199 16.9348 11.7059 18.1538C12.9918 19.3728 13.7143 21.0261 13.7143 22.75C13.7143 24.4739 12.9918 26.1272 11.7059 27.3462C10.4199 28.5652 8.67576 29.25 6.85713 29.25ZM24 29.25C22.1814 29.25 20.4372 28.5652 19.1513 27.3462C17.8653 26.1272 17.1428 24.4739 17.1428 22.75C17.1428 21.0261 17.8653 19.3728 19.1513 18.1538C20.4372 16.9348 22.1814 16.25 24 16.25C25.8186 16.25 27.5628 16.9348 28.8487 18.1538C30.1347 19.3728 30.8571 21.0261 30.8571 22.75C30.8571 24.4739 30.1347 26.1272 28.8487 27.3462C27.5628 28.5652 25.8186 29.25 24 29.25ZM41.1428 29.25C39.3242 29.25 37.5801 28.5652 36.2941 27.3462C35.0082 26.1272 34.2857 24.4739 34.2857 22.75C34.2857 21.0261 35.0082 19.3728 36.2941 18.1538C37.5801 16.9348 39.3242 16.25 41.1428 16.25C42.9615 16.25 44.7056 16.9348 45.9916 18.1538C47.2775 19.3728 48 21.0261 48 22.75C48 24.4739 47.2775 26.1272 45.9916 27.3462C44.7056 28.5652 42.9615 29.25 41.1428 29.25ZM6.85713 45.5C5.03851 45.5 3.29437 44.8152 2.0084 43.5962C0.722438 42.3772 -8.25001e-06 40.7239 -8.25001e-06 39C-8.25001e-06 37.2761 0.722438 35.6228 2.0084 34.4038C3.29437 33.1848 5.03851 32.5 6.85713 32.5C8.67576 32.5 10.4199 33.1848 11.7059 34.4038C12.9918 35.6228 13.7143 37.2761 13.7143 39C13.7143 40.7239 12.9918 42.3772 11.7059 43.5962C10.4199 44.8152 8.67576 45.5 6.85713 45.5ZM24 45.5C22.1814 45.5 20.4372 44.8152 19.1513 43.5962C17.8653 42.3772 17.1428 40.7239 17.1428 39C17.1428 37.2761 17.8653 35.6228 19.1513 34.4038C20.4372 33.1848 22.1814 32.5 24 32.5C25.8186 32.5 27.5628 33.1848 28.8487 34.4038C30.1347 35.6228 30.8571 37.2761 30.8571 39C30.8571 40.7239 30.1347 42.3772 28.8487 43.5962C27.5628 44.8152 25.8186 45.5 24 45.5ZM24 65C22.1814 65 20.4372 64.3152 19.1513 63.0962C17.8653 61.8772 17.1428 60.2239 17.1428 58.5C17.1428 56.7761 17.8653 55.1228 19.1513 53.9038C20.4372 52.6848 22.1814 52 24 52C25.8186 52 27.5628 52.6848 28.8487 53.9038C30.1347 55.1228 30.8571 56.7761 30.8571 58.5C30.8571 60.2239 30.1347 61.8772 28.8487 63.0962C27.5628 64.3152 25.8186 65 24 65ZM41.1428 45.5C39.3242 45.5 37.5801 44.8152 36.2941 43.5962C35.0082 42.3772 34.2857 40.7239 34.2857 39C34.2857 37.2761 35.0082 35.6228 36.2941 34.4038C37.5801 33.1848 39.3242 32.5 41.1428 32.5C42.9615 32.5 44.7056 33.1848 45.9916 34.4038C47.2775 35.6228 48 37.2761 48 39C48 40.7239 47.2775 42.3772 45.9916 43.5962C44.7056 44.8152 42.9615 45.5 41.1428 45.5Z" fill="#FEFFFD"/>
<rect x="15" y="50" width="26" height="15" fill="#5F6267"/>
</svg>
