<svg width="57" height="32" viewBox="0 0 57 32" fill="none" xmlns="http://www.w3.org/2000/svg">
<path d="M33.2698 0H4.73021C2.11771 0 0 1.78333 0 3.98333V28.0167C0 30.2167 2.11771 32 4.73021 32H33.2698C35.8823 32 38 30.2167 38 28.0167V3.98333C38 1.78333 35.8823 0 33.2698 0ZM52.0125 3.14167L41.1667 9.44167V22.5583L52.0125 28.85C54.1104 30.0667 57 28.825 57 26.7V5.29167C57 3.175 54.1203 1.925 52.0125 3.14167Z" fill="white"/>
<path d="M17.5682 19.767V19.4773C17.5739 18.483 17.6619 17.6903 17.8324 17.0994C18.0085 16.5085 18.2642 16.0312 18.5994 15.6676C18.9347 15.304 19.3381 14.9744 19.8097 14.679C20.1619 14.4517 20.4773 14.2159 20.7557 13.9716C21.0341 13.7273 21.2557 13.4574 21.4205 13.1619C21.5852 12.8608 21.6676 12.5256 21.6676 12.1562C21.6676 11.7642 21.5739 11.4205 21.3864 11.125C21.1989 10.8295 20.946 10.6023 20.6278 10.4432C20.3153 10.2841 19.9688 10.2045 19.5881 10.2045C19.2188 10.2045 18.8693 10.2869 18.5398 10.4517C18.2102 10.6108 17.9403 10.8494 17.7301 11.1676C17.5199 11.4801 17.4063 11.8693 17.3892 12.3352H13.9119C13.9403 11.1989 14.2131 10.2614 14.7301 9.52273C15.2472 8.77841 15.9318 8.22443 16.7841 7.86079C17.6364 7.49148 18.5767 7.30682 19.6051 7.30682C20.7358 7.30682 21.7358 7.49432 22.6051 7.86932C23.4744 8.23864 24.1563 8.77557 24.6506 9.48011C25.1449 10.1847 25.392 11.0341 25.392 12.0284C25.392 12.6932 25.2813 13.2841 25.0597 13.8011C24.8438 14.3125 24.5398 14.767 24.1477 15.1648C23.7557 15.5568 23.2926 15.9119 22.7585 16.2301C22.3097 16.4972 21.9403 16.7756 21.6506 17.0653C21.3665 17.3551 21.1534 17.6903 21.0114 18.071C20.875 18.4517 20.804 18.9205 20.7983 19.4773V19.767H17.5682ZM19.2557 25.2216C18.6875 25.2216 18.2017 25.0227 17.7983 24.625C17.4006 24.2216 17.2045 23.7386 17.2102 23.1761C17.2045 22.6193 17.4006 22.142 17.7983 21.7443C18.2017 21.3466 18.6875 21.1477 19.2557 21.1477C19.7955 21.1477 20.2699 21.3466 20.679 21.7443C21.0881 22.142 21.2955 22.6193 21.3011 23.1761C21.2955 23.5511 21.196 23.8949 21.0028 24.2074C20.8153 24.5142 20.5682 24.7614 20.2614 24.9489C19.9545 25.1307 19.6193 25.2216 19.2557 25.2216Z" fill="#8592A7"/>
</svg>
