<svg width="53" height="51" viewBox="0 0 53 51" fill="none" xmlns="http://www.w3.org/2000/svg">
<g filter="url(#filter0_d_99_2)">
<path d="M14.7469 6.6417C16.3694 5.73392 18.4387 5.52068 20.4173 6.02192C21.3802 6.26585 22.2027 6.89007 22.6968 7.75172L24.5433 10.9724C25.7334 13.0481 25.1938 15.6851 23.2838 17.1265L22.1417 17.9884C21.6046 18.3937 21.3823 18.9674 21.4917 19.4526C21.8397 20.9954 22.6069 22.4277 23.6808 23.4824C24.0011 23.797 24.5649 23.9051 25.1778 23.6706L26.4426 23.1869C28.6448 22.3444 31.1319 23.2452 32.2839 25.3026L34.0956 28.5377C34.5953 29.4299 34.6789 30.4964 34.3241 31.4557C33.6192 33.3614 32.2619 34.8976 30.5916 35.6672C28.8949 36.4491 26.908 36.4174 25.1106 35.2185C22.2658 33.3207 18.8357 30.1291 15.7295 24.8044C12.5829 19.4103 11.7897 14.817 11.879 11.3944C11.9362 9.20197 13.0955 7.56567 14.7469 6.6417Z" fill="white"/>
<path d="M30.8 18.1504C30.8 18.6751 30.3746 19.1004 29.85 19.1004C29.3254 19.1004 28.9 18.6751 28.9 18.1504C28.9 17.6258 29.3254 17.2004 29.85 17.2004C30.3746 17.2004 30.8 17.6258 30.8 18.1504Z" fill="white"/>
<path d="M31.75 17.2004C32.2746 17.2004 32.7 16.7751 32.7 16.2504C32.7 15.7257 32.2746 15.3004 31.75 15.3004C31.2254 15.3004 30.8 15.7257 30.8 16.2504C30.8 16.7751 31.2254 17.2004 31.75 17.2004Z" fill="white"/>
<path d="M34.6 14.3505C34.6 14.8752 34.1746 15.3005 33.65 15.3005C33.1254 15.3005 32.7 14.8752 32.7 14.3505C32.7 13.8258 33.1254 13.4005 33.65 13.4005C34.1746 13.4005 34.6 13.8258 34.6 14.3505Z" fill="white"/>
<path d="M40.3 16.2504C40.3 16.7751 40.7254 17.2004 41.25 17.2004C41.7746 17.2004 42.2 16.7751 42.2 16.2504V6.75042C42.2 6.22575 41.7746 5.80042 41.25 5.80042H31.75C31.2254 5.80042 30.8 6.22575 30.8 6.75042C30.8 7.2751 31.2254 7.70042 31.75 7.70042H38.9565L34.8781 11.7787C34.5073 12.1497 34.5073 12.7512 34.8781 13.1222C35.2492 13.4932 35.8508 13.4932 36.2218 13.1222L40.3 9.04392V16.2504Z" fill="white"/>
</g>
<defs>
<filter id="filter0_d_99_2" x="0" y="0" width="53" height="51" filterUnits="userSpaceOnUse" color-interpolation-filters="sRGB">
<feFlood flood-opacity="0" result="BackgroundImageFix"/>
<feColorMatrix in="SourceAlpha" type="matrix" values="0 0 0 0 0 0 0 0 0 0 0 0 0 0 0 0 0 0 127 0" result="hardAlpha"/>
<feOffset dy="4"/>
<feGaussianBlur stdDeviation="2"/>
<feComposite in2="hardAlpha" operator="out"/>
<feColorMatrix type="matrix" values="0 0 0 0 0 0 0 0 0 0 0 0 0 0 0 0 0 0 0.25 0"/>
<feBlend mode="normal" in2="BackgroundImageFix" result="effect1_dropShadow_99_2"/>
<feBlend mode="normal" in="SourceGraphic" in2="effect1_dropShadow_99_2" result="shape"/>
</filter>
</defs>
</svg>
