<svg width="49" height="43" viewBox="0 0 49 43" fill="none" xmlns="http://www.w3.org/2000/svg">
<path d="M9.96163 41.3681L10.3 41.6791L10.6384 41.3681L23.5 29.5458L36.3616 41.3681L36.7 41.6791L37.0384 41.3681L40.3384 38.3348L40.7378 37.9676L40.3393 37.5994L28.9661 27.0911L28.9652 27.0902C28.1079 26.3023 27.462 25.4178 27.0202 24.4364C26.578 23.4541 26.3571 22.4227 26.3571 21.3375V11.4142L29.2931 14.0708L29.6312 14.3767L29.9669 14.0681L33.2669 11.0348L33.6674 10.6667L33.2669 10.2986L23.8384 1.63189L23.5 1.32086L23.1616 1.63189L13.7331 10.2986L13.3326 10.6667L13.7331 11.0348L17.0331 14.0681L17.3688 14.3767L17.7069 14.0708L20.6429 11.4142V21.3375C20.6429 22.4227 20.422 23.4541 19.9798 24.4364C19.538 25.4178 18.8921 26.3023 18.0348 27.0902L18.0339 27.0911L6.66069 37.5994L6.26219 37.9676L6.66163 38.3348L9.96163 41.3681Z" fill="white" stroke="white"/>
</svg>
