<svg width="45" height="43" viewBox="0 0 45 43" fill="none" xmlns="http://www.w3.org/2000/svg">
<g clip-path="url(#clip0_98_4)">
<path d="M22.5 0C10.0706 0 0 9.62298 0 21.5C0 33.377 10.0706 43 22.5 43C34.9294 43 45 33.377 45 21.5C45 9.62298 34.9294 0 22.5 0ZM22.5 8.32258C26.9093 8.32258 30.4839 11.7383 30.4839 15.9516C30.4839 20.1649 26.9093 23.5806 22.5 23.5806C18.0907 23.5806 14.5161 20.1649 14.5161 15.9516C14.5161 11.7383 18.0907 8.32258 22.5 8.32258ZM22.5 38.1452C17.1744 38.1452 12.4022 35.8391 9.20867 32.2327C10.9143 29.1637 14.253 27.0484 18.1452 27.0484C18.3629 27.0484 18.5806 27.0831 18.7893 27.1438C19.9688 27.5079 21.2026 27.7419 22.5 27.7419C23.7974 27.7419 25.0403 27.5079 26.2107 27.1438C26.4194 27.0831 26.6371 27.0484 26.8548 27.0484C30.747 27.0484 34.0857 29.1637 35.7913 32.2327C32.5978 35.8391 27.8256 38.1452 22.5 38.1452Z" fill="white"/>
<rect x="38.7344" y="36.302" width="4.64306" height="43.9017" rx="2" transform="rotate(136.784 38.7344 36.302)" fill="#6B7280"/>
<rect x="35.4714" y="3.66382" width="4.64306" height="43.8479" rx="2" transform="rotate(42.7223 35.4714 3.66382)" fill="#6B7280"/>
</g>
<defs>
<clipPath id="clip0_98_4">
<rect width="45" height="43" fill="white"/>
</clipPath>
</defs>
</svg>
