<?xml version="1.0" encoding="utf-8"?>
<!-- Generator: Adobe Illustrator 27.5.0, SVG Export Plug-In . SVG Version: 6.00 Build 0)  -->
<svg version="1.1" xmlns="http://www.w3.org/2000/svg" xmlns:xlink="http://www.w3.org/1999/xlink" x="0px" y="0px"
	 viewBox="0 0 500 500" style="enable-background:new 0 0 500 500;" xml:space="preserve">
<g id="Background_Complete">
	<g>
		<rect y="382.398" style="fill:#EBEBEB;" width="500" height="0.25"/>
		<rect x="416.779" y="398.494" style="fill:#EBEBEB;" width="33.122" height="0.25"/>
		<rect x="322.527" y="401.208" style="fill:#EBEBEB;" width="8.693" height="0.25"/>
		<rect x="396.586" y="389.208" style="fill:#EBEBEB;" width="19.192" height="0.25"/>
		<rect x="52.459" y="390.888" style="fill:#EBEBEB;" width="43.193" height="0.25"/>
		<rect x="104.556" y="390.888" style="fill:#EBEBEB;" width="6.333" height="0.25"/>
		<rect x="131.471" y="395.111" style="fill:#EBEBEB;" width="93.676" height="0.25"/>
		<path style="fill:#EBEBEB;" d="M237.014,337.8H43.915c-3.147,0-5.708-2.561-5.708-5.708V60.66c0-3.147,2.561-5.708,5.708-5.708
			h193.099c3.146,0,5.707,2.561,5.707,5.708v271.432C242.721,335.239,240.16,337.8,237.014,337.8z M43.915,55.203
			c-3.01,0-5.458,2.448-5.458,5.458v271.432c0,3.01,2.448,5.458,5.458,5.458h193.099c3.009,0,5.457-2.448,5.457-5.458V60.66
			c0-3.009-2.448-5.458-5.457-5.458H43.915z"/>
		<path style="fill:#EBEBEB;" d="M453.31,337.8H260.212c-3.147,0-5.707-2.561-5.707-5.708V60.66c0-3.147,2.561-5.708,5.707-5.708
			H453.31c3.148,0,5.708,2.561,5.708,5.708v271.432C459.019,335.239,456.458,337.8,453.31,337.8z M260.212,55.203
			c-3.009,0-5.457,2.448-5.457,5.458v271.432c0,3.01,2.448,5.458,5.457,5.458H453.31c3.01,0,5.458-2.448,5.458-5.458V60.66
			c0-3.009-2.448-5.458-5.458-5.458H260.212z"/>
	</g>
	<g>
		<g>
			<rect x="358.995" y="130.01" style="fill:#E6E6E6;" width="14.167" height="44.111"/>
			<polygon style="fill:#F0F0F0;" points="411.572,174.121 364.554,174.121 357.453,122.492 404.471,122.492 			"/>
			<polygon style="fill:#F5F5F5;" points="416.664,174.121 368.098,174.121 360.997,122.492 409.563,122.492 			"/>
			<polygon style="fill:#FFFFFF;" points="371.607,170.053 365.626,126.561 406.054,126.561 412.036,170.053 			"/>
			<path style="fill:#F5F5F5;" d="M379.595,156.884l-2.245-16.326c-0.251-1.827,1.168-3.455,3.012-3.455h14.691
				c1.519,0,2.806,1.121,3.013,2.626l2.245,16.326c0.251,1.827-1.168,3.455-3.012,3.455h-14.691
				C381.089,159.511,379.802,158.389,379.595,156.884z"/>
		</g>
		<g>
			<rect x="73.156" y="81.683" style="fill:#E6E6E6;" width="211.788" height="130.654"/>
			<rect x="75.699" y="81.683" style="fill:#F0F0F0;" width="214.687" height="130.654"/>
			<rect x="73.156" y="212.337" style="fill:#E6E6E6;" width="211.788" height="10.111"/>
			<rect x="84.763" y="212.337" style="fill:#F0F0F0;" width="214.687" height="10.111"/>
			
				<rect x="125.332" y="47.284" transform="matrix(-1.836970e-16 1 -1 -1.836970e-16 330.0519 -36.0317)" style="fill:#FAFAFA;" width="115.419" height="199.452"/>
			<polygon style="fill:#FFFFFF;" points="97.958,204.72 142.667,89.3 163.772,89.3 119.063,204.72 			"/>
			<polygon style="fill:#FFFFFF;" points="123.597,204.72 168.306,89.3 176.534,89.3 131.825,204.72 			"/>
			<polygon style="fill:#FFFFFF;" points="201.818,204.72 246.527,89.3 254.755,89.3 210.046,204.72 			"/>
			
				<rect x="224.574" y="146.527" transform="matrix(-1.836970e-16 1 -1 -1.836970e-16 429.2942 -135.2739)" style="fill:#E6E6E6;" width="115.419" height="0.967"/>
		</g>
		<g>
			<g>
				<rect x="400.664" y="174.121" style="fill:#E6E6E6;" width="44.839" height="208.277"/>
				<polygon style="fill:#F0F0F0;" points="440.992,382.398 445.502,382.398 445.502,369.569 436.263,369.569 				"/>
				<rect x="322.09" y="174.121" style="fill:#E6E6E6;" width="44.839" height="208.277"/>
				<rect x="362.992" y="174.121" style="fill:#F0F0F0;" width="82.51" height="200.405"/>
				<polygon style="fill:#F0F0F0;" points="367.503,382.398 362.992,382.398 362.992,369.569 372.232,369.569 				"/>
				<rect x="366.491" y="177.791" style="fill:#E6E6E6;" width="75.512" height="94.541"/>
				<path style="fill:#F0F0F0;" d="M412.424,185.148h-16.353c-7.103,0-13.894-2.921-18.779-8.077h0h53.912l0,0
					C426.318,182.227,419.527,185.148,412.424,185.148z"/>
				<rect x="366.491" y="276.159" style="fill:#E6E6E6;" width="75.512" height="94.541"/>
				<path style="fill:#F0F0F0;" d="M412.424,283.516h-16.353c-7.103,0-13.894-2.921-18.779-8.077h0h53.912l0,0
					C426.318,280.595,419.527,283.516,412.424,283.516z"/>
			</g>
		</g>
		<g>
			<polygon style="fill:#E6E6E6;" points="129.499,239.889 204.123,239.889 214.938,283.956 140.314,283.956 			"/>
			<polygon style="fill:#E6E6E6;" points="140.314,283.956 140.616,286.391 215.244,286.391 214.942,283.956 			"/>
			<polygon style="fill:#F0F0F0;" points="131.796,239.889 206.42,239.889 217.235,283.956 142.611,283.956 			"/>
			<polygon style="fill:#FFFFFF;" points="144.189,281.942 134.362,241.902 204.841,241.902 214.669,281.942 			"/>
			<polygon style="fill:#F0F0F0;" points="162.055,283.956 162.357,286.391 244.534,286.391 244.232,283.956 			"/>
		</g>
		<g>
			<rect x="254.344" y="286.391" style="fill:#E6E6E6;" width="8.942" height="95.997"/>
			<rect x="259.898" y="286.391" style="fill:#F0F0F0;" width="6.21" height="95.997"/>
			
				<rect x="152.824" y="286.391" transform="matrix(-1 -1.224647e-16 1.224647e-16 -1 420.8558 583.7697)" style="fill:#F0F0F0;" width="115.207" height="10.987"/>
			<rect x="139.879" y="297.378" style="fill:#E6E6E6;" width="8.942" height="85.01"/>
			<rect x="145.433" y="297.378" style="fill:#F0F0F0;" width="6.21" height="85.01"/>
			<rect x="83.292" y="297.378" style="fill:#E6E6E6;" width="8.942" height="85.01"/>
			<rect x="88.846" y="297.378" style="fill:#F0F0F0;" width="6.21" height="85.01"/>
			<rect x="197.757" y="297.378" style="fill:#E6E6E6;" width="8.942" height="85.01"/>
			<rect x="203.311" y="297.378" style="fill:#F0F0F0;" width="6.21" height="85.01"/>
			<rect x="83.292" y="286.391" style="fill:#E6E6E6;" width="69.532" height="10.987"/>
		</g>
		<g>
			<path style="fill:#F0F0F0;" d="M292.342,382.398h-2.177l-6.216-30.642l-1.092-5.368l-6.782-33.392H250.07l-14.091,69.402h-2.177
				l14.358-70.683c0.102-0.495,0.534-0.849,1.045-0.849h27.742c0.503,0,0.943,0.354,1.037,0.849l5.957,29.329l1.092,5.36
				L292.342,382.398z"/>
			<path style="fill:#F0F0F0;" d="M334.089,382.398h-2.177l-14.099-69.402h-25.997l-6.782,33.408l-1.085,5.352l-6.224,30.642h-2.177
				l7.309-36.009l1.085-5.344l5.957-29.329c0.102-0.495,0.542-0.849,1.045-0.849h27.742c0.511,0,0.943,0.354,1.045,0.849
				L334.089,382.398z"/>
			<path style="fill:#F0F0F0;" d="M269.992,311.93h47.78c9.122,0,14.176-6.203,16.754-16.416l1.269-5.841
				c1.043-4.799-0.741-9.892-4.788-12.673c-1.962-1.348-4.339-2.138-6.903-2.138h-29.952c-6.206,0-7.842,1.477-12.127,10.823
				C277.739,295.031,269.992,311.93,269.992,311.93z"/>
			<path style="fill:#F0F0F0;" d="M249.293,302.775h46.758v9.155h-50.916c-1.318,0-2.386-1.068-2.386-2.386v-0.225
				C242.749,305.705,245.679,302.775,249.293,302.775z"/>
		</g>
	</g>
</g>
<g id="Background_Simple" style="display:none;">
	<g style="display:inline;">
		<path style="fill:#407BFF;" d="M284.897,192.568c-57.118-38.679-143.579-161.853-210.099-54.6
			c-47.773,77.025,86.687,156.671,143.69,181.613c72.919,31.906,203.329,20.055,221.335-77.576
			c7.21-39.094-11.208-54.753-46.339-47.615C352.258,202.766,326.974,221.061,284.897,192.568z"/>
		<path style="opacity:0.9;fill:#FFFFFF;" d="M284.897,192.568c-57.118-38.679-143.579-161.853-210.099-54.6
			c-47.773,77.025,86.687,156.671,143.69,181.613c72.919,31.906,203.329,20.055,221.335-77.576
			c7.21-39.094-11.208-54.753-46.339-47.615C352.258,202.766,326.974,221.061,284.897,192.568z"/>
	</g>
</g>
<g id="Shadow_1_">
	<ellipse id="_x3C_Path_x3E__7_" style="fill:#F5F5F5;" cx="250" cy="416.238" rx="193.889" ry="11.323"/>
</g>
<g id="Character_Female">
	<g>
		<g>
			<g>
				<polygon style="fill:#FF8B7B;" points="203.033,384.251 196.634,388.372 185.033,374.879 191.432,370.758 				"/>
				<polygon style="opacity:0.2;" points="191.436,370.76 185.035,374.883 191.018,381.836 197.419,377.714 				"/>
			</g>
			<g>
				<polygon style="fill:#FF8B7B;" points="154.116,406.254 146.764,406.973 139.114,389.474 146.466,388.755 				"/>
				<polygon style="opacity:0.2;" points="139.118,389.478 143.06,398.498 150.729,398.498 146.473,388.759 				"/>
			</g>
			<path style="fill:#263238;" d="M98.229,170.007c-3.704,0.337-3.798-5.944-10.296-2.986c-8.26,3.76-5.475,9.592-11.919,9.345
				c-6.444-0.247-10.778,4.791-9.333,8.549c1.445,3.759,3.667,7.295-0.889,8.805c-4.556,1.51-7.667,2.843-7,6.621
				c0.667,3.778,3.889,5.301-1.556,7.706c-5.444,2.405-4.889,12.831,0.444,12.84s0.222,5.207,5,10.479
				c4.778,5.272,12.05,6.049,15.081,3.401c3.03-2.648,6.411-4.759,12.11-0.759c5.698,4,15.344,5,14.91-1.333
				c-0.434-6.333-5.975-10.5-0.76-13.805c5.215-3.306,12.008-4.926,9.874-11.343c-1.346-4.049-5.43-7.482-2.131-10.479
				c5.348-4.858,5.375-15.858-1.182-18.646C106.771,176.778,110.444,168.896,98.229,170.007z"/>
			<path style="fill:#FF8B7B;" d="M91.11,219.417c-0.176,2.967-0.559,5.676-1.004,8.487c-0.466,2.783-1.077,5.546-1.802,8.296
				c-0.719,2.752-1.608,5.48-2.716,8.159c-0.542,1.342-1.158,2.67-1.821,3.982c-0.331,0.657-0.687,1.307-1.056,1.953
				c-0.176,0.325-0.383,0.641-0.573,0.962l-0.292,0.479c-0.165,0.247-0.389,0.599-0.654,0.883c-0.507,0.601-1.23,1.132-1.969,1.471
				c-0.754,0.355-1.498,0.494-2.162,0.548c-1.333,0.089-2.36-0.163-3.245-0.438c-1.76-0.579-3.113-1.355-4.398-2.158
				c-2.538-1.625-4.729-3.416-6.833-5.288c-4.158-3.789-7.931-7.772-11.462-12.074l2.805-2.644c1.995,1.759,4.033,3.55,6.098,5.251
				c2.046,1.729,4.13,3.401,6.255,4.961c2.108,1.564,4.255,3.083,6.403,4.227c1.058,0.569,2.149,1.038,3,1.232
				c0.417,0.105,0.753,0.089,0.779,0.069c0.009-0.012-0.056-0.007-0.199,0.041c-0.131,0.042-0.283,0.174-0.362,0.243
				c-0.02,0.03-0.036,0.04-0.049,0.05c-0.004-0.004-0.042,0.067-0.008,0.008l0.219-0.404c0.143-0.272,0.299-0.531,0.432-0.812
				c0.279-0.55,0.55-1.107,0.803-1.678c0.507-1.141,0.983-2.307,1.401-3.51c0.842-2.398,1.541-4.883,2.162-7.402
				c0.613-2.522,1.091-5.093,1.504-7.677c0.428-2.556,0.75-5.246,0.979-7.703L91.11,219.417z"/>
			<g>
				<path style="fill:#407BFF;" d="M96.922,220.362c-0.4,2.42-2.41,6.99-4.03,10.4c-1.18,2.46-2.14,4.31-2.14,4.31l-1.4-0.62
					l-11.59-5.16c0.88-6.25,2.31-13.05,9.2-16.07C91.292,211.322,97.632,216.042,96.922,220.362z"/>
				<path style="opacity:0.6;" d="M96.922,220.362c-0.4,2.42-2.41,6.99-4.03,10.4c-1.18,2.46-2.14,4.31-2.14,4.31l-1.4-0.62
					l-11.59-5.16c0.88-6.25,2.31-13.05,9.2-16.07C91.292,211.322,97.632,216.042,96.922,220.362z"/>
			</g>
			<path style="opacity:0.3;" d="M92.892,230.762c-1.18,2.46-2.14,4.31-2.14,4.31l-1.4-0.62c0.19-2.47,0.68-6.36,2.02-8.11
				C92.202,227.612,92.662,229.172,92.892,230.762z"/>
			<path style="fill:#FF8B7B;" d="M54.371,234.294l0.924-6.734l-7.557,2.48c0,0,1.206,4.076,3.895,5.743L54.371,234.294z"/>
			<polygon style="fill:#FF8B7B;" points="51.865,221.812 46.598,224.7 47.737,230.039 55.294,227.56 			"/>
			<path style="fill:#263238;" d="M194.271,386.354l6.949-4.983c0.253-0.181,0.584-0.153,0.796,0.068l4.735,4.93
				c0.491,0.511,0.388,1.403-0.203,1.811c-2.452,1.696-3.722,2.391-6.778,4.582c-1.88,1.348-5.84,4.607-8.436,6.469
				c-2.539,1.821-4.575-0.606-3.661-1.614c4.099-4.519,5.188-7.599,5.837-10.141C193.628,387.017,193.902,386.62,194.271,386.354z"
				/>
			<path style="fill:#263238;" d="M145.788,404.701h9.029c0.329,0,0.625,0.228,0.713,0.549l1.963,7.144
				c0.204,0.741-0.342,1.422-1.102,1.429c-3.182,0.029-4.69,0.015-8.661,0.015c-2.443,0-8.763,0-12.136,0
				c-3.299,0-3.989-3.336-2.624-3.638c6.121-1.355,9.65-3.223,11.538-5.005C144.85,404.874,145.307,404.701,145.788,404.701z"/>
			<g>
				<g>
					<path style="fill:#407BFF;" d="M132.052,247.462c-5.69,1.8-17.78,5.62-29.47,9.32c-20.4-40.38-17.49-42.52-17.49-42.52
						s4.71-2.69,9.61-4.93c0.74-0.34,1.49-0.67,2.23-0.98c4.24-1.78,8.35-2.91,13.38-4.24c0.67-0.18,1.34-0.34,2.01-0.5
						c5.73-1.32,11.03-1.81,11.03-1.81c0.44,5.59,0.88,10.32,1.36,14.43c0.62,5.36,1.29,9.65,2.04,13.36
						C128.162,236.492,129.852,241.392,132.052,247.462z"/>
					<path style="opacity:0.6;" d="M132.052,247.462c-5.69,1.8-17.78,5.62-29.47,9.32c-20.4-40.38-17.49-42.52-17.49-42.52
						s4.71-2.69,9.61-4.93c0.74-0.34,1.49-0.67,2.23-0.98c4.24-1.78,8.35-2.91,13.38-4.24c0.67-0.18,1.34-0.34,2.01-0.5
						c5.73-1.32,11.03-1.81,11.03-1.81c0.44,5.59,0.88,10.32,1.36,14.43c0.62,5.36,1.29,9.65,2.04,13.36
						C128.162,236.492,129.852,241.392,132.052,247.462z"/>
				</g>
				<path style="opacity:0.3;" d="M126.752,229.592c-2.83-4.02-5.54-13.31-4.84-16.8l2.8,3.44
					C125.332,221.592,126.002,225.882,126.752,229.592z"/>
			</g>
			<path style="fill:#FFFFFF;" d="M103.625,221.801c0,0,7.437-1.608,9.826,1.615c3.278-3.222,2.122-15.845,0.538-20.345
				c-1.25,0.111-3.673,1.042-3.673,1.042l-5.246,8.116L103.625,221.801z"/>
			<path style="fill:#FFFFFF;" d="M103.625,221.801c0,0-5.027,1.122-5.527,5.206c-6.976-5.206-6.51-12.838-4.927-17.338
				c1.139-0.695,3.761-1.318,3.761-1.318l5.248,5.774L103.625,221.801z"/>
			<g>
				<path style="fill:#FF8B7B;" d="M105.342,195.594c0.955,3.677,2.521,7.318,4.974,8.519c0,0,2.309,6.616-6.691,17.689
					c-9.418-6.711-6.691-13.454-6.691-13.454c4.439-2.666,3.188-6.189,1.293-9.27l2.612-4.188
					C101.995,193.036,104.793,193.479,105.342,195.594z"/>
				<path style="opacity:0.2;" d="M105.344,195.59c-0.55-2.11-3.35-2.55-4.51-0.7l-0.84,1.34c0,0.01,0,0.01,0,0.01
					c0.07,0.89,0.11,1.62,0.1,2c-0.08,2.6,3.57,2.479,6.54,1.229C106.114,198.26,105.684,196.93,105.344,195.59z"/>
			</g>
			<path style="fill:#FF8B7B;" d="M87.252,185.536c2.595,7.094,3.542,10.152,8.296,12.774c7.151,3.945,15.297-0.794,14.873-8.521
				c-0.381-6.954-4.561-17.387-12.49-18.157C90.118,170.874,84.656,178.442,87.252,185.536z"/>
			<path style="fill:#263238;" d="M105.636,174.881c-2.434-2.353-4.979-5.083-9.897-4.55c-5.423,0.588-7.561,3.867-7.561,3.867
				l-4.662,10.19c0,0,2.892,13.121,7.664,6.99c2.745-3.526,2.857-8.874,1.786-12.877c1.525-0.146,3.522-0.692,5.521-1.284
				c2.197,0.822,4.669,0.826,6.501-0.858c0.398-0.366,0.692-0.657,0.902-0.885l0.165-0.193
				C106.629,174.589,106.175,174.664,105.636,174.881z M99.339,176.963c1.943-0.583,3.819-1.155,5.197-1.389
				C103.93,176.354,102.146,177.584,99.339,176.963z"/>
			<path style="fill:#FF8B7B;" d="M87.614,192.745c0.783,1.356,2.119,2.225,3.367,2.538c1.877,0.471,2.765-1.22,2.2-2.965
				c-0.508-1.571-2.097-3.709-3.961-3.405C87.384,189.212,86.719,191.194,87.614,192.745z"/>
			<g>
				<path style="fill:#407BFF;" d="M102.58,256.787c0,0-1.039,60.398,6.892,82.217c7.603,20.918,30.27,56.879,30.27,56.879
					l13.136-0.338c0,0-20.868-45.529-24.291-63.542c-5.677-29.872-4.424-82.045-4.424-82.045L102.58,256.787z"/>
				<path style="opacity:0.3;" d="M114.38,261.951l3.53-10.01l6.25-1.98c0,0-0.57,23.73,0.8,48.34
					C119.294,287.421,114.379,267.421,114.38,261.951z"/>
			</g>
			<polygon style="fill:#263238;" points="137.889,396.564 154.116,396.15 153.178,391.164 135.46,392.004 			"/>
			<path style="fill:#407BFF;" d="M109.044,254.837c0,0,20.494,46.896,33.744,73.583c10.702,21.555,44.002,50.48,44.002,50.48
				l9.125-6.333c0,0-25.051-34.255-32.441-48.873c-23.652-46.787-17.82-66.066-31.422-76.232L109.044,254.837z"/>
			<polygon style="fill:#263238;" points="187.29,381.922 198.012,374.293 195.577,369.611 183.798,378.523 			"/>
			<path style="fill:#263238;" d="M131.946,245.593l2.164,2.217c0.168,0.172-0.008,0.457-0.349,0.565l-30.908,9.779
				c-0.266,0.084-0.527,0.023-0.597-0.138l-1.1-2.554c-0.076-0.177,0.105-0.404,0.396-0.496l29.844-9.442
				C131.615,245.454,131.838,245.482,131.946,245.593z"/>
			<path style="fill:#407BFF;" d="M128.994,250.198l0.799-0.253c0.159-0.05,0.254-0.171,0.212-0.268l-1.459-3.309
				c-0.043-0.097-0.208-0.135-0.367-0.085l-0.799,0.253c-0.159,0.05-0.254,0.171-0.212,0.268l1.459,3.309
				C128.669,250.211,128.834,250.249,128.994,250.198z"/>
			<path style="fill:#407BFF;" d="M105.189,257.73l0.799-0.253c0.159-0.05,0.254-0.171,0.212-0.268l-1.459-3.309
				c-0.043-0.097-0.208-0.135-0.367-0.085l-0.799,0.253c-0.159,0.05-0.254,0.171-0.212,0.268l1.459,3.309
				C104.865,257.742,105.03,257.78,105.189,257.73z"/>
			<path style="fill:#407BFF;" d="M117.091,253.964l0.799-0.253c0.159-0.05,0.255-0.171,0.212-0.268l-1.459-3.309
				c-0.043-0.097-0.208-0.135-0.367-0.085l-0.799,0.253c-0.159,0.05-0.254,0.171-0.212,0.268l1.459,3.309
				C116.767,253.976,116.932,254.014,117.091,253.964z"/>
			<path style="fill:#263238;" d="M99.692,183.981c0.175,0.588,0.629,0.973,1.013,0.858s0.554-0.684,0.379-1.273
				c-0.175-0.588-0.629-0.973-1.014-0.858C99.687,182.823,99.517,183.393,99.692,183.981z"/>
			<path style="fill:#263238;" d="M106.342,182.001c0.175,0.588,0.629,0.973,1.014,0.858c0.385-0.115,0.554-0.684,0.379-1.273
				c-0.175-0.588-0.629-0.973-1.013-0.858C106.337,180.843,106.167,181.413,106.342,182.001z"/>
			<path style="fill:#263238;" d="M106.562,180.812l1.292-0.828C107.853,179.984,107.457,181.303,106.562,180.812z"/>
			<path style="fill:#FF5652;" d="M104.685,183.526c0,0,1.753,2.236,3.215,3.131c-0.561,0.956-1.98,1.018-1.98,1.018
				L104.685,183.526z"/>
			<path style="fill:#263238;" d="M103.925,190.896c0.054-0.045,0.079-0.119,0.058-0.191c-0.029-0.095-0.129-0.15-0.224-0.121
				c-2.575,0.767-4.325-0.676-4.343-0.691c-0.076-0.064-0.192-0.052-0.254,0.021c-0.064,0.076-0.055,0.189,0.021,0.254
				c0.077,0.065,1.91,1.586,4.679,0.761C103.885,190.923,103.907,190.911,103.925,190.896z"/>
			<path style="fill:#263238;" d="M97.176,182.365c0.047-0.039,0.085-0.09,0.108-0.151c0.563-1.505,1.857-1.81,1.87-1.813
				c0.193-0.042,0.317-0.236,0.274-0.43c-0.043-0.194-0.236-0.317-0.43-0.273c-0.069,0.015-1.689,0.395-2.389,2.264
				c-0.07,0.186,0.025,0.394,0.211,0.464C96.945,182.472,97.08,182.445,97.176,182.365z"/>
			<path style="fill:#263238;" d="M108.366,178.23c0.008-0.021,0.015-0.042,0.019-0.065c0.038-0.195-0.09-0.384-0.286-0.422
				c-1.958-0.377-3.128,0.807-3.177,0.858c-0.139,0.143-0.134,0.372,0.009,0.51c0.143,0.138,0.37,0.134,0.509-0.008
				c0.044-0.044,0.965-0.951,2.523-0.652C108.136,178.484,108.304,178.388,108.366,178.23z"/>
			<path style="fill:#FF8B7B;" d="M127.829,208.857c1.191,0.895,2.192,1.724,3.234,2.627c1.024,0.893,2.03,1.801,3.016,2.731
				c1.953,1.88,3.827,3.844,5.606,5.909c1.788,2.059,3.455,4.233,4.988,6.528c0.398,0.56,0.747,1.166,1.121,1.746
				c0.373,0.582,0.737,1.171,1.07,1.787c0.345,0.624,0.676,1.177,1.029,1.861l0.53,1.11l0.43,1.12
				c1.039,3.005,1.275,5.964,1.274,8.799c-0.058,2.837-0.366,5.585-0.889,8.26c-0.518,2.675-1.194,5.284-1.971,7.848
				c-0.835,2.561-1.699,5.043-2.822,7.545l-3.616-1.335c0.62-2.402,1.212-4.924,1.653-7.408c0.48-2.486,0.855-4.982,1.072-7.46
				c0.214-2.477,0.32-4.933,0.164-7.302c-0.079-1.179-0.213-2.333-0.423-3.439c-0.223-1.098-0.537-2.135-0.91-3.084l-0.301-0.689
				l-0.346-0.635c-0.266-0.46-0.634-1.007-0.944-1.506c-0.313-0.515-0.661-1.015-1.018-1.51c-0.359-0.494-0.686-1.003-1.07-1.485
				c-1.459-1.965-3.102-3.817-4.748-5.668c-1.662-1.84-3.44-3.593-5.267-5.29c-0.905-0.858-1.83-1.695-2.766-2.515
				c-0.928-0.796-1.922-1.642-2.789-2.338L127.829,208.857z"/>
			<path style="fill:#FF8B7B;" d="M141.92,262.998l-5.477,4.025l7.041,3.699c0,0,2.086-3.703,1.411-6.794L141.92,262.998z"/>
			<polygon style="fill:#FF8B7B;" points="134.705,273.486 140.445,275.257 143.485,270.722 136.443,267.023 			"/>
			<g>
				<path style="fill:#407BFF;" d="M123.353,201.802c3.83-0.173,11.357,9.239,11.357,9.239l-7.816,11.056
					c0,0-8.782-6.981-9.462-11.87C116.855,206.076,118.475,202.022,123.353,201.802z"/>
				<path style="opacity:0.6;" d="M123.353,201.802c3.83-0.173,11.357,9.239,11.357,9.239l-7.816,11.056
					c0,0-8.782-6.981-9.462-11.87C116.855,206.076,118.475,202.022,123.353,201.802z"/>
			</g>
			<path style="fill:#407BFF;" d="M191.643,389.483c-0.042,0-0.083-0.002-0.123-0.007c-0.342-0.04-0.612-0.244-0.801-0.604
				c-0.142-0.272-0.081-0.488-0.004-0.621c0.486-0.841,3.234-0.977,3.545-0.989c0.073-0.003,0.139,0.037,0.17,0.102
				c0.031,0.065,0.021,0.142-0.027,0.196C193.767,388.292,192.585,389.483,191.643,389.483z M193.839,387.648
				c-1.097,0.086-2.556,0.34-2.812,0.783c-0.032,0.056-0.06,0.137,0.011,0.273c0.132,0.252,0.303,0.387,0.524,0.413
				C192.079,389.18,192.916,388.635,193.839,387.648z"/>
			<path style="fill:#407BFF;" d="M194.085,387.63c-0.924,0-2.736-0.508-3.07-1.246c-0.069-0.153-0.135-0.454,0.2-0.762
				c0.213-0.195,0.467-0.279,0.761-0.249c1.099,0.113,2.384,1.888,2.439,1.963c0.037,0.052,0.044,0.12,0.018,0.179
				c-0.026,0.059-0.082,0.099-0.146,0.106C194.226,387.627,194.158,387.63,194.085,387.63z M191.863,385.728
				c-0.155,0-0.288,0.053-0.404,0.16c-0.171,0.157-0.151,0.268-0.116,0.348c0.22,0.485,1.64,0.985,2.564,1.033
				c-0.459-0.569-1.314-1.469-1.969-1.537C191.913,385.729,191.887,385.728,191.863,385.728z"/>
			<path style="fill:#407BFF;" d="M141.784,406.191c-0.698,0-1.348-0.108-1.763-0.422c-0.283-0.214-0.438-0.506-0.458-0.867
				c-0.015-0.269,0.115-0.415,0.227-0.491c0.82-0.554,3.893,0.842,4.502,1.128c0.07,0.033,0.111,0.106,0.103,0.183
				c-0.008,0.077-0.065,0.139-0.14,0.156C143.598,406.023,142.654,406.191,141.784,406.191z M140.345,404.634
				c-0.155,0-0.276,0.024-0.354,0.076c-0.037,0.025-0.075,0.065-0.069,0.172c0.015,0.254,0.118,0.451,0.316,0.6
				c0.529,0.401,1.777,0.453,3.393,0.155C142.522,405.154,141.07,404.634,140.345,404.634z"/>
			<path style="fill:#407BFF;" d="M144.214,405.882c-0.023,0-0.046-0.004-0.068-0.013c-1.019-0.417-3.074-2.065-2.959-2.916
				c0.025-0.187,0.153-0.421,0.617-0.476c1.796-0.212,2.554,3.047,2.586,3.186c0.015,0.066-0.008,0.134-0.059,0.178
				C144.298,405.868,144.256,405.882,144.214,405.882z M141.969,402.827c-0.04,0-0.081,0.002-0.122,0.007
				c-0.189,0.023-0.291,0.079-0.303,0.167c-0.067,0.494,1.353,1.796,2.392,2.366C143.699,404.58,143.05,402.827,141.969,402.827z"/>
			<path style="fill:#263238;" d="M99.911,182.792l1.292-0.828C101.203,181.964,100.806,183.283,99.911,182.792z"/>
		</g>
	</g>
</g>
<g id="Account">
	<g>
		<g>
			<path d="M288.629,109.667H143.296c-6.6,0-11.74,5.4-11.422,12l13.623,282.571c0.318,6.6,5.979,12,12.578,12h145.333
				c6.6,0,11.74-5.4,11.421-12l-13.623-282.571C300.89,115.067,295.229,109.667,288.629,109.667z"/>
			<path style="fill:#263238;" d="M293.963,109.667H148.63c-6.6,0-11.74,5.4-11.421,12l13.623,282.571c0.318,6.6,5.979,12,12.579,12
				h145.333c6.6,0,11.74-5.4,11.421-12l-13.623-282.571C306.223,115.067,300.563,109.667,293.963,109.667z"/>
			<path style="fill:#407BFF;" d="M163.024,408.238c-2.168,0-4.088-1.832-4.193-4l-13.623-282.571c-0.105-2.168,1.639-4,3.807-4
				h145.333c2.168,0,4.088,1.832,4.193,4l13.623,282.571c0.104,2.168-1.639,4-3.807,4H163.024z"/>
			<path style="opacity:0.1;" d="M162.927,406.238c-1.066,0-2.045-0.935-2.096-2l-13.623-282.571c-0.051-1.065,0.838-2,1.904-2
				h145.333c1.065,0,2.045,0.935,2.096,2l13.623,282.571c0.051,1.065-0.838,2-1.904,2H162.927z"/>
		</g>
		<g>
			<g style="opacity:0.3;">
				<path style="fill:#FAFAFA;" d="M206.792,389.958h-28.833c-1.618,0-2.998-1.316-3.076-2.934l-2.107-43.714
					c-0.038-0.795,0.237-1.544,0.775-2.108c0.537-0.564,1.27-0.874,2.064-0.874h28.833c1.618,0,2.998,1.316,3.076,2.934
					l2.107,43.714c0.038,0.795-0.237,1.544-0.775,2.108C208.319,389.648,207.586,389.958,206.792,389.958z M175.614,341.328
					c-0.518,0-0.994,0.2-1.34,0.564c-0.347,0.364-0.525,0.851-0.5,1.37l2.108,43.714c0.053,1.093,0.984,1.982,2.077,1.982h28.833
					c0.518,0,0.994-0.2,1.34-0.564c0.347-0.364,0.525-0.851,0.5-1.37l-2.107-43.714c-0.053-1.093-0.984-1.982-2.077-1.982H175.614z"
					/>
				<g>
					<path style="fill:#FAFAFA;" d="M204.075,351.519h-27.105c-0.276,0-0.5-0.224-0.5-0.5s0.224-0.5,0.5-0.5h27.105
						c0.276,0,0.5,0.224,0.5,0.5S204.351,351.519,204.075,351.519z"/>
					<path style="fill:#FAFAFA;" d="M204.347,357.169h-27.105c-0.276,0-0.5-0.224-0.5-0.5s0.224-0.5,0.5-0.5h27.105
						c0.276,0,0.5,0.224,0.5,0.5S204.623,357.169,204.347,357.169z"/>
					<path style="fill:#FAFAFA;" d="M204.619,362.818h-27.105c-0.276,0-0.5-0.224-0.5-0.5c0-0.276,0.224-0.5,0.5-0.5h27.105
						c0.276,0,0.5,0.224,0.5,0.5C205.119,362.595,204.895,362.818,204.619,362.818z"/>
					<path style="fill:#FAFAFA;" d="M204.892,368.468h-27.105c-0.276,0-0.5-0.224-0.5-0.5c0-0.276,0.224-0.5,0.5-0.5h27.105
						c0.276,0,0.5,0.224,0.5,0.5C205.392,368.244,205.168,368.468,204.892,368.468z"/>
					<path style="fill:#FAFAFA;" d="M205.164,374.117h-27.105c-0.276,0-0.5-0.224-0.5-0.5s0.224-0.5,0.5-0.5h27.105
						c0.276,0,0.5,0.224,0.5,0.5S205.44,374.117,205.164,374.117z"/>
					<path style="fill:#FAFAFA;" d="M199.878,379.767h-21.547c-0.276,0-0.5-0.224-0.5-0.5c0-0.276,0.224-0.5,0.5-0.5h21.547
						c0.276,0,0.5,0.224,0.5,0.5C200.378,379.543,200.154,379.767,199.878,379.767z"/>
				</g>
			</g>
			<g style="opacity:0.3;">
				<path style="fill:#FAFAFA;" d="M224.937,229.631l-19.77,3.16c-1.122-2.535-2.108-4.293-2.959-5.275
					c-0.851-0.982-2.229-1.972-4.133-2.972l0.747,15.493c10.992,2.895,18.388,5.95,22.185,9.165
					c5.028,4.324,7.702,9.808,8.023,16.453c0.188,3.894-0.506,7.467-2.081,10.719c-1.576,3.252-3.658,5.967-6.248,8.146
					c-2.591,2.179-5.38,3.76-8.367,4.743c-2.988,0.982-6.672,1.562-11.055,1.741l0.131,2.723c0.104,2.159-1.562,3.909-3.721,3.909
					l0,0c-2.159,0-3.994-1.75-4.098-3.909l-0.131-2.723c-5.271-0.464-9.569-1.312-12.895-2.544
					c-3.326-1.232-6.229-2.936-8.708-5.114c-2.48-2.177-4.422-4.525-5.829-7.042c-1.407-2.517-2.517-5.56-3.332-9.131l21.514-2.517
					c0.813,3.534,1.801,6.087,2.967,7.658c1.164,1.571,3.025,2.964,5.584,4.177l-0.912-18.924c-7.309-2.001-12.507-3.734-15.594-5.2
					c-3.088-1.464-5.816-3.814-8.185-7.047c-2.37-3.233-3.666-7.172-3.89-11.817c-0.307-6.359,1.66-11.674,5.899-15.943
					c4.239-4.269,10.739-6.636,19.499-7.101l-0.067-1.392c-0.104-2.159,1.562-3.91,3.721-3.91l0,0c2.159,0,3.994,1.75,4.098,3.91
					l0.067,1.392c8.021,0.5,14.227,2.392,18.616,5.677C220.401,219.421,223.376,223.919,224.937,229.631z M190.243,224.276
					c-2.249,0.754-3.793,1.687-4.631,2.799c-0.839,1.112-1.222,2.422-1.149,3.928c0.076,1.579,0.595,2.951,1.557,4.117
					c0.962,1.166,2.591,2.142,4.888,2.927L190.243,224.276z M200.605,277.026c3.001-0.68,5.17-1.8,6.506-3.358
					c1.335-1.558,1.956-3.304,1.863-5.238c-0.081-1.684-0.752-3.232-2.014-4.647c-1.261-1.414-3.655-2.729-7.183-3.943
					L200.605,277.026z"/>
			</g>
		</g>
		<g>
			<path style="opacity:0.2;" d="M277.199,146.555h-98.965l9.647,200.111c0.813,16.868,15.146,30.542,32.014,30.542h98.965
				l-9.647-200.112C308.401,160.229,294.067,146.555,277.199,146.555z"/>
			<g>
				<path style="fill:#FAFAFA;" d="M301.449,146.555h-92.673h-30.542c16.867,0,31.201,13.674,32.014,30.542l7.853,162.889
					c0.813,16.868,15.146,30.542,32.014,30.542h62.132c16.868,0,29.883-13.674,29.069-30.542l-7.853-162.889
					C332.65,160.23,318.317,146.555,301.449,146.555z"/>
				<path style="fill:#E6E6E6;" d="M279.185,339.987c0.813,16.868-12.202,30.542-29.07,30.542h30.542h92.673
					c16.868,0,29.883-13.674,29.07-30.542H279.185z"/>
			</g>
			<g>
				<path style="fill:#407BFF;" d="M318.801,247.667h-87.085c-1.248,0-2.319-1.021-2.379-2.27l0,0c-0.06-1.248,0.912-2.27,2.16-2.27
					h87.085c1.249,0,2.319,1.021,2.379,2.27l0,0C321.021,246.645,320.049,247.667,318.801,247.667z"/>
				<path style="fill:#407BFF;" d="M319.484,261.84h-87.086c-1.248,0-2.319-1.022-2.379-2.27l0,0c-0.06-1.249,0.912-2.27,2.161-2.27
					h87.085c1.249,0,2.319,1.022,2.379,2.27l0,0C321.705,260.818,320.732,261.84,319.484,261.84z"/>
				<path style="fill:#407BFF;" d="M320.167,276.013h-87.085c-1.248,0-2.319-1.021-2.379-2.27l0,0c-0.06-1.249,0.912-2.27,2.16-2.27
					h87.085c1.248,0,2.319,1.021,2.379,2.27l0,0C322.388,274.992,321.416,276.013,320.167,276.013z"/>
				<path style="fill:#407BFF;" d="M320.85,290.186h-87.085c-1.249,0-2.319-1.021-2.379-2.27l0,0c-0.06-1.249,0.912-2.27,2.161-2.27
					h87.086c1.248,0,2.319,1.021,2.379,2.27l0,0C323.071,289.165,322.099,290.186,320.85,290.186z"/>
				<path style="fill:#407BFF;" d="M286.912,304.359h-52.464c-1.248,0-2.319-1.021-2.379-2.27l0,0
					c-0.06-1.248,0.912-2.27,2.161-2.27h52.464c1.248,0,2.319,1.021,2.379,2.27l0,0
					C289.133,303.338,288.161,304.359,286.912,304.359z"/>
			</g>
			<g>
				
					<ellipse transform="matrix(0.6985 -0.7156 0.7156 0.6985 -59.9198 255.1851)" style="fill:#407BFF;" cx="272.898" cy="198.706" rx="26.706" ry="28.025"/>
				<path style="fill:#FFFFFF;" d="M295.476,198.704c0.188,3.9-0.625,7.56-2.21,10.755c-3.469,7.037-10.697,11.824-19.28,11.824
					c-8.584,0-16.272-4.786-20.42-11.824c-1.894-3.195-3.059-6.855-3.247-10.755c-0.601-12.472,9.018-22.579,21.49-22.579
					S294.875,186.232,295.476,198.704z"/>
				<path style="opacity:0.4;fill:#407BFF;" d="M293.266,209.459c-3.469,7.037-10.697,11.824-19.28,11.824
					c-8.584,0-16.272-4.786-20.42-11.824c5.501-3.797,12.216-6.014,19.56-6.014S287.398,205.661,293.266,209.459z"/>
				
					<ellipse transform="matrix(0.6986 -0.7155 0.7155 0.6986 -54.5062 252.5691)" style="opacity:0.4;fill:#407BFF;" cx="272.525" cy="190.979" rx="9.818" ry="10.303"/>
			</g>
		</g>
	</g>
</g>
<g id="Character_Male">
	<g>
		<g>
			<polygon style="fill:#B55B52;" points="356.761,408.737 349.415,408.737 348.683,391.724 356.029,391.724 			"/>
			<polygon style="opacity:0.2;" points="348.685,391.729 349.06,400.498 356.41,400.498 356.034,391.729 			"/>
		</g>
		<g>
			<polygon style="fill:#B55B52;" points="419.29,388.802 412.305,391.078 403.524,376.046 410.509,373.771 			"/>
			<polygon style="opacity:0.2;" points="410.513,373.774 403.525,376.051 408.055,383.798 415.043,381.521 			"/>
		</g>
		<path style="fill:#B55B52;" d="M381.595,162.917c0.913,1.115,1.688,2.108,2.472,3.19c0.781,1.061,1.543,2.13,2.29,3.212
			c1.485,2.168,2.901,4.389,4.229,6.677c2.642,4.59,5.042,9.39,6.739,14.716l0.163,0.496l0.084,0.261l0.11,0.409l0.199,0.821
			l0.112,0.749c0.137,1.002,0.14,1.874,0.105,2.712c-0.087,1.663-0.35,3.126-0.661,4.534c-0.619,2.807-1.548,5.333-2.511,7.812
			c-1.999,4.932-4.374,9.488-7.151,13.952l-4.97-2.391c1.5-4.682,2.959-9.491,4.098-14.158c0.581-2.326,1.038-4.669,1.294-6.838
			c0.121-1.078,0.175-2.127,0.115-2.99c-0.029-0.422-0.071-0.819-0.147-1.061l-0.045-0.184c-0.022-0.03-0.039-0.061-0.052-0.092
			l-0.016-0.047l-0.078-0.184l-0.168-0.392l-0.665-1.566l-0.752-1.563c-0.496-1.042-1.048-2.085-1.602-3.12
			c-1.134-2.067-2.371-4.117-3.645-6.15c-1.295-2.026-2.641-4.035-4.021-6.025c-1.351-1.975-2.855-3.992-4.205-5.804
			L381.595,162.917z"/>
		<path style="fill:#B55B52;" d="M383.231,218.875l-2.875,6.354h8.215c0,0,1.308-4.821-1.671-6.768L383.231,218.875z"/>
		<polygon style="fill:#B55B52;" points="381.317,232.37 388.94,230.895 388.571,225.229 380.356,225.229 		"/>
		<path style="fill:#263238;" d="M345.224,130.693c0,0.592-0.314,1.073-0.701,1.073c-0.387,0-0.701-0.48-0.701-1.073
			c0-0.593,0.314-1.073,0.701-1.073C344.91,129.62,345.224,130.101,345.224,130.693z"/>
		<path style="fill:#A02724;" d="M344.965,131.766c0,0-1.347,3.418-2.831,5.068c1.048,0.979,2.831,0.531,2.831,0.531V131.766z"/>
		<path style="fill:#263238;" d="M347.324,127.41c-0.071,0-0.142-0.021-0.203-0.066c-1.259-0.907-2.46-0.459-2.472-0.454
			c-0.179,0.069-0.381-0.02-0.45-0.199c-0.069-0.179,0.02-0.381,0.199-0.45c0.063-0.024,1.568-0.587,3.13,0.539
			c0.156,0.112,0.191,0.33,0.079,0.486C347.539,127.36,347.432,127.41,347.324,127.41z"/>
		<path style="fill:#B55B52;" d="M364.348,137.525c-1.054,5.374-2.105,15.222,1.655,18.808c0,0-1.469,5.452-11.455,5.452
			c-10.981,0-5.248-5.451-5.248-5.451c5.993-1.431,5.838-5.878,4.794-10.053L364.348,137.525z"/>
		<path style="fill:#263238;" d="M367.442,158.204c0.787-1.726,1.654-3.701-0.139-4.319c-1.972-0.681-12.768-1.375-16.49-0.097
			c-3.722,1.278-2.667,4.778-2.667,4.778L367.442,158.204z"/>
		<path style="fill:#407BFF;" d="M410.8,392.827c-0.544,0.521-1.151,0.942-1.611,0.87c-0.193-0.03-0.448-0.159-0.566-0.601
			c-0.062-0.232-0.024-0.458,0.115-0.671c0.601-0.926,3.027-1.322,3.13-1.338c0.068-0.011,0.136,0.019,0.173,0.077
			c0.038,0.057,0.038,0.132,0.001,0.189C411.833,391.678,411.348,392.303,410.8,392.827z M409.168,392.45
			c-0.055,0.053-0.102,0.108-0.139,0.165c-0.083,0.128-0.106,0.256-0.07,0.392c0.084,0.315,0.234,0.339,0.284,0.347
			c0.512,0.08,1.601-0.951,2.267-1.844C410.783,391.665,409.651,391.989,409.168,392.45z"/>
		<path style="fill:#407BFF;" d="M412.016,391.385c-0.02,0.02-0.046,0.034-0.075,0.042c-0.835,0.227-3.009,0.08-3.463-0.619
			c-0.082-0.127-0.181-0.388,0.085-0.713c0.172-0.21,0.404-0.328,0.69-0.35c1.099-0.086,2.691,1.325,2.758,1.385
			c0.047,0.043,0.068,0.108,0.053,0.17C412.057,391.332,412.04,391.362,412.016,391.385z M408.886,390.257
			c-0.019,0.018-0.037,0.037-0.054,0.058c-0.144,0.176-0.087,0.265-0.062,0.303c0.268,0.413,1.785,0.645,2.728,0.537
			c-0.49-0.388-1.514-1.119-2.219-1.064C409.119,390.104,408.989,390.159,408.886,390.257z"/>
		<path style="fill:#407BFF;" d="M346.463,409.114c-0.942,0-1.853-0.13-2.158-0.553c-0.107-0.148-0.191-0.401,0.014-0.761
			c0.115-0.202,0.301-0.339,0.552-0.407c1.222-0.333,3.79,1.131,3.899,1.193c0.063,0.036,0.097,0.108,0.085,0.179
			c-0.012,0.072-0.066,0.128-0.138,0.143C348.248,409.001,347.342,409.114,346.463,409.114z M345.299,407.689
			c-0.122,0-0.236,0.012-0.337,0.04c-0.16,0.044-0.272,0.123-0.34,0.244c-0.123,0.216-0.079,0.323-0.034,0.385
			c0.342,0.475,2.199,0.485,3.565,0.293C347.471,408.3,346.157,407.689,345.299,407.689z"/>
		<path style="fill:#407BFF;" d="M348.683,408.911c-0.024,0-0.048-0.005-0.071-0.015c-0.886-0.398-2.643-1.986-2.509-2.817
			c0.031-0.195,0.17-0.438,0.648-0.486c0.355-0.036,0.68,0.064,0.965,0.298c0.935,0.767,1.133,2.746,1.14,2.83
			c0.006,0.062-0.022,0.122-0.072,0.158C348.754,408.9,348.719,408.911,348.683,408.911z M346.891,405.933
			c-0.034,0-0.069,0.002-0.104,0.005c-0.313,0.032-0.333,0.155-0.34,0.196c-0.081,0.498,1.113,1.747,2.018,2.291
			c-0.095-0.578-0.357-1.762-0.97-2.265C347.31,406.008,347.111,405.933,346.891,405.933z"/>
		<path style="fill:#263238;" d="M411.703,390.265l5.964-5.705c0.217-0.208,0.549-0.237,0.799-0.07l5.562,3.716
			c0.577,0.385,0.635,1.217,0.126,1.688c-2.117,1.956-3.245,2.801-5.868,5.31c-1.614,1.543-6.441,6.8-8.669,8.932
			c-2.179,2.085-4.627,0.206-3.905-0.866c3.235-4.807,5.258-9.424,5.442-11.854C411.187,390.978,411.386,390.569,411.703,390.265z"
			/>
		<path style="fill:#263238;" d="M349.463,407.886h8.023c0.3,0,0.56,0.209,0.625,0.502l1.451,6.53
			c0.15,0.677-0.364,1.319-1.057,1.307c-2.894-0.049-7.076-0.219-10.713-0.219c-4.253,0-7.926,0.232-12.914,0.232
			c-3.016,0-3.853-3.049-2.591-3.325c5.747-1.257,10.44-1.392,15.406-4.454C348.233,408.126,348.829,407.886,349.463,407.886z"/>
		<path style="fill:#B55B52;" d="M338.978,173.024c-2.915,4.295-5.928,8.314-9.17,12.29c-3.236,3.955-6.645,7.806-10.403,11.475
			l-1.446,1.362l-0.361,0.34l-0.258,0.235l-0.368,0.317c-0.495,0.395-1.006,0.739-1.506,1.009c-2.025,1.095-3.834,1.372-5.452,1.525
			c-3.237,0.253-5.986-0.183-8.658-0.713c-5.312-1.147-10.105-2.933-14.85-5.219l1.831-5.203c4.715,0.879,9.616,1.665,14.189,1.936
			c2.266,0.128,4.54,0.092,6.268-0.262c0.847-0.169,1.519-0.485,1.662-0.646c0.043-0.038,0.038-0.063,0.025-0.063
			c-0.008-0.001-0.016,0.001-0.021,0.003c0.002-0.004-0.018,0.016,0.004-0.008l0.074-0.082l0.296-0.327l1.184-1.303
			c3.125-3.562,6.152-7.358,9.095-11.242c2.946-3.858,5.885-7.859,8.696-11.742L338.978,173.024z"/>
		<g>
			<path style="fill:#407BFF;" d="M379.157,157.994c6.885,1.579,14.782,20.351,14.782,20.351l-13.829,9.478
				c0,0-5.239-7.329-9.134-15.529C366.895,163.702,372.117,156.38,379.157,157.994z"/>
			<path style="opacity:0.3;" d="M374.223,169.964l6.54,17.409l-0.65,0.45c0,0-2.83-3.97-5.89-9.33V169.964z"/>
		</g>
		<g>
			<path style="fill:#407BFF;" d="M338,158.372c0,0-7.819,8.832-0.435,63.497c11.839,0,33.532,0,39.293,0
				c0.271-6.032-3.519-35.456,2.298-63.876c0,0-6.735-1.352-13.154-1.661c-5.021-0.242-12.289-0.402-16.703,0.001
				C343.481,156.864,338,158.372,338,158.372z"/>
			<path style="opacity:0.3;" d="M342.363,174.176c-0.13,0.16-0.99,9.03-7.76,16.82c-0.16-3.52-0.22-6.68-0.21-9.51L342.363,174.176
				z"/>
		</g>
		<path style="fill:#407BFF;" d="M345.751,164.328c0.969,6.956-12.737,24.726-12.737,24.726l-13.772-9.479
			c0,0,3.818-9.793,10.251-16.21C336.837,156.038,344.697,156.757,345.751,164.328z"/>
		<path style="fill:#B55B52;" d="M289.319,190.97l-5.386-5.574l-5.75,7.416c0,0,4.376,4.225,9.591,3.031L289.319,190.97z"/>
		<polygon style="fill:#B55B52;" points="276.526,182.328 274.065,190.111 278.183,192.811 283.933,185.395 		"/>
		<path style="fill:#B55B52;" d="M364.988,129.437c-0.447,7.277-0.339,11.559-4.014,15.294c-5.529,5.618-14.511,2.286-16.248-4.978
			c-1.563-6.538-0.569-17.341,6.554-20.237C358.298,116.663,365.435,122.16,364.988,129.437z"/>
		<path style="fill:#263238;" d="M371.328,114.25c2.245,2.065,1.291,4.361,0.125,4.792c3.625,0.75,4.161,3.639,2.251,9.736
			c-1.829,5.839-6.238,13.668-11.745,14.148c-8.278,0.722-10.701-7.902-10.756-16.462c-4.687,0.282-2.666-3.869-8.411-2.907
			c-4.965,0.831-3.126-3.072-7.371-4.771c-4.927-1.972-3.937-9.551,0.658-7.381c0,0-2.134,1.406,0.351,2.719
			s2.243-1.726,7.148-2.094c4.904-0.369,5.478,3.832,11.22,1.303C362.027,110.149,366.733,110.023,371.328,114.25z"/>
		<path style="fill:#263238;" d="M368.572,118.974c0,0,0.939-1.731,3.186-1.253c2.247,0.479,2.436,1.468,3.846,1.34
			c1.41-0.128,0.898,1.373,0.898,1.373s-0.379-1.132-2.081-0.502c-1.701,0.63-2.81-0.915-3.541-0.221
			C370.148,120.403,368.572,118.974,368.572,118.974z"/>
		<path style="fill:#B55B52;" d="M355.124,131.416c-0.317,1.883-1.388,3.572-2.572,4.625c-1.781,1.583-3.325,0.313-3.378-1.854
			c-0.048-1.951,0.822-5.125,2.873-5.883C354.067,127.556,355.486,129.262,355.124,131.416z"/>
		<path style="fill:#263238;" d="M351.504,221.87c0,0,8.337,56.142,12.914,77.175c5.012,23.033,39.855,84.199,39.855,84.199
			l12.793-4.168c0,0-27.749-55.139-30.609-77.943c-3.104-24.75-9.599-79.263-9.599-79.263H351.504z"/>
		<path style="fill:#407BFF;" d="M400.694,379.196c-0.055,0.018,2.922,4.482,2.922,4.482l14.394-4.69l-1.693-4.298L400.694,379.196z
			"/>
		<path style="opacity:0.3;" d="M356.773,241.873c9.64,1.89,8.62,37.84,7.46,56.33c-2.78-13.07-6.85-38.22-9.63-56.07
			C355.243,241.813,355.963,241.713,356.773,241.873z"/>
		<path style="fill:#263238;" d="M337.565,221.87c0,0-1.012,54.927-0.213,77.33c0.831,23.302,8.97,99.601,8.97,99.601h12.445
			c0,0,0.457-74.937,1.01-97.822c0.604-24.949,3.616-79.108,3.616-79.108H337.565z"/>
		<path style="fill:#407BFF;" d="M343.928,393.843c-0.057,0,0.702,5.167,0.702,5.167h15.138l0.409-4.611L343.928,393.843z"/>
	</g>
</g>
</svg>
